<?xml version="1.0" encoding="UTF-8"?>

<svg version="1.2" baseProfile="tiny" width="210mm" height="210mm" viewBox="0 0 21000 21000" preserveAspectRatio="xMidYMid" fill-rule="evenodd" stroke-width="28.222" stroke-linejoin="round" xmlns="http://www.w3.org/2000/svg" xmlns:ooo="http://xml.openoffice.org/svg/export" xmlns:xlink="http://www.w3.org/1999/xlink" xml:space="preserve">
 <defs class="ClipPathGroup">
  <clipPath id="presentation_clip_path" clipPathUnits="userSpaceOnUse">
   <rect x="0" y="0" width="21000" height="21000"/>
  </clipPath>
 </defs>
 <defs class="TextShapeIndex">
  <g ooo:slide="id1" ooo:id-list="id3 id4 id5 id6 id7 id8 id9 id10 id11 id12 id13 id14 id15"/>
 </defs>
 <defs class="EmbeddedBulletChars">
  <g id="bullet-char-template(57356)" transform="scale(0.00048828125,-0.00048828125)">
   <path d="M 580,1141 L 1163,571 580,0 -4,571 580,1141 Z"/>
  </g>
  <g id="bullet-char-template(57354)" transform="scale(0.00048828125,-0.00048828125)">
   <path d="M 8,1128 L 1137,1128 1137,0 8,0 8,1128 Z"/>
  </g>
  <g id="bullet-char-template(10146)" transform="scale(0.00048828125,-0.00048828125)">
   <path d="M 174,0 L 602,739 174,1481 1456,739 174,0 Z M 1358,739 L 309,1346 659,739 1358,739 Z"/>
  </g>
  <g id="bullet-char-template(10132)" transform="scale(0.00048828125,-0.00048828125)">
   <path d="M 2015,739 L 1276,0 717,0 1260,543 174,543 174,936 1260,936 717,1481 1274,1481 2015,739 Z"/>
  </g>
  <g id="bullet-char-template(10007)" transform="scale(0.00048828125,-0.00048828125)">
   <path d="M 0,-2 C -7,14 -16,27 -25,37 L 356,567 C 262,823 215,952 215,954 215,979 228,992 255,992 264,992 276,990 289,987 310,991 331,999 354,1012 L 381,999 492,748 772,1049 836,1024 860,1049 C 881,1039 901,1025 922,1006 886,937 835,863 770,784 769,783 710,716 594,584 L 774,223 C 774,196 753,168 711,139 L 727,119 C 717,90 699,76 672,76 641,76 570,178 457,381 L 164,-76 C 142,-110 111,-127 72,-127 30,-127 9,-110 8,-76 1,-67 -2,-52 -2,-32 -2,-23 -1,-13 0,-2 Z"/>
  </g>
  <g id="bullet-char-template(10004)" transform="scale(0.00048828125,-0.00048828125)">
   <path d="M 285,-33 C 182,-33 111,30 74,156 52,228 41,333 41,471 41,549 55,616 82,672 116,743 169,778 240,778 293,778 328,747 346,684 L 369,508 C 377,444 397,411 428,410 L 1163,1116 C 1174,1127 1196,1133 1229,1133 1271,1133 1292,1118 1292,1087 L 1292,965 C 1292,929 1282,901 1262,881 L 442,47 C 390,-6 338,-33 285,-33 Z"/>
  </g>
  <g id="bullet-char-template(9679)" transform="scale(0.00048828125,-0.00048828125)">
   <path d="M 813,0 C 632,0 489,54 383,161 276,268 223,411 223,592 223,773 276,916 383,1023 489,1130 632,1184 813,1184 992,1184 1136,1130 1245,1023 1353,916 1407,772 1407,592 1407,412 1353,268 1245,161 1136,54 992,0 813,0 Z"/>
  </g>
  <g id="bullet-char-template(8226)" transform="scale(0.00048828125,-0.00048828125)">
   <path d="M 346,457 C 273,457 209,483 155,535 101,586 74,649 74,723 74,796 101,859 155,911 209,963 273,989 346,989 419,989 480,963 531,910 582,859 608,796 608,723 608,648 583,586 532,535 482,483 420,457 346,457 Z"/>
  </g>
  <g id="bullet-char-template(8211)" transform="scale(0.00048828125,-0.00048828125)">
   <path d="M -4,459 L 1135,459 1135,606 -4,606 -4,459 Z"/>
  </g>
 </defs>
 <defs class="TextEmbeddedBitmaps"/>
 <g>
  <g id="id2" class="Master_Slide">
   <g id="bg-id2" class="Background"/>
   <g id="bo-id2" class="BackgroundObjects"/>
  </g>
 </g>
 <g class="SlideGroup">
  <g>
   <g id="id1" class="Slide" clip-path="url(#presentation_clip_path)">
    <g class="Page">
     <g class="com.sun.star.drawing.ClosedBezierShape">
      <g id="id3">
       <path fill="rgb(218,225,228)" stroke="none" d="M 7169,1969 C 7169,2332 7087,2640 6906,2954 6724,3268 6499,3493 6185,3675 5871,3856 5563,3938 5200,3938 4838,3938 4530,3856 4216,3675 3902,3493 3676,3268 3495,2954 3314,2640 3231,2332 3231,1969 3231,1607 3314,1299 3495,985 3676,671 3902,445 4216,264 4530,83 4838,0 5200,0 5563,0 5871,83 6185,264 6499,445 6724,671 6906,985 7087,1299 7169,1607 7169,1969 Z"/>
      </g>
     </g>
     <g class="com.sun.star.drawing.ClosedBezierShape">
      <g id="id4">
       <path fill="rgb(196,202,204)" stroke="none" d="M 6841,1969 C 6841,2271 6772,2528 6621,2790 6470,3051 6282,3239 6021,3390 5759,3541 5502,3610 5200,3610 4898,3610 4641,3541 4380,3390 4118,3239 3930,3051 3779,2790 3628,2528 3559,2271 3559,1969 3559,1667 3628,1410 3779,1149 3930,887 4118,699 4380,548 4641,397 4898,328 5200,328 5502,328 5759,397 6021,548 6282,699 6470,887 6621,1149 6772,1410 6841,1667 6841,1969 Z"/>
      </g>
     </g>
     <g class="com.sun.star.drawing.PolyPolygonShape">
      <g id="id5">
       <path fill="rgb(218,225,228)" stroke="none" d="M 3231,1969 L 7169,1969 7169,18376 3231,18376 3231,1969 Z"/>
      </g>
     </g>
     <g class="com.sun.star.drawing.PolyPolygonShape">
      <g id="id6">
       <path fill="rgb(196,202,204)" stroke="none" d="M 3559,1969 L 6841,1969 6841,18028 3559,18028 3559,1969 Z"/>
      </g>
     </g>
     <g class="com.sun.star.drawing.ClosedBezierShape">
      <g id="id7">
       <path fill="rgb(218,225,228)" stroke="none" d="M 8154,18048 C 8154,18591 8030,19054 7759,19524 7487,19995 7148,20334 6677,20606 6207,20877 5744,21001 5201,21001 4657,21001 4195,20877 3724,20606 3253,20334 2915,19995 2643,19524 2371,19054 2247,18591 2247,18048 2247,17504 2371,17042 2643,16571 2915,16100 3253,15762 3724,15490 4195,15218 4657,15094 5201,15094 5744,15094 6207,15218 6677,15490 7148,15762 7487,16100 7759,16571 8030,17042 8154,17504 8154,18048 Z"/>
      </g>
     </g>
     <g class="com.sun.star.drawing.ClosedBezierShape">
      <g id="id8">
       <path fill="rgb(51,51,255)" stroke="none" d="M 7826,18048 C 7826,18531 7716,18942 7474,19360 7233,19779 6932,20080 6513,20321 6095,20563 5684,20673 5201,20673 4717,20673 4306,20563 3888,20321 3469,20080 3168,19779 2927,19360 2685,18942 2575,18531 2575,18048 2575,17564 2685,17153 2927,16735 3168,16316 3469,16015 3888,15774 4306,15532 4717,15422 5201,15422 5684,15422 6095,15532 6513,15774 6932,16015 7233,16316 7474,16735 7716,17153 7826,17564 7826,18048 Z"/>
      </g>
     </g>
     <g class="com.sun.star.drawing.PolyPolygonShape">
      <g id="id9">
       <path fill="rgb(51,51,255)" stroke="none" d="M 3559,15100 L 6841,15100 6841,16736 3559,16736 3559,15100 Z"/>
      </g>
     </g>
     <g class="com.sun.star.drawing.PolyPolygonShape">
      <g id="id10">
       <path fill="rgb(255,255,255)" stroke="none" d="M 5528,2953 L 7170,2953 7170,3610 5528,3610 5528,2953 Z"/>
      </g>
     </g>
     <g class="com.sun.star.drawing.PolyPolygonShape">
      <g id="id11">
       <path fill="rgb(255,255,255)" stroke="none" d="M 5528,5578 L 7170,5578 7170,6235 5528,6235 5528,5578 Z"/>
      </g>
     </g>
     <g class="com.sun.star.drawing.PolyPolygonShape">
      <g id="id12">
       <path fill="rgb(255,255,255)" stroke="none" d="M 5528,8203 L 7170,8203 7170,8860 5528,8860 5528,8203 Z"/>
      </g>
     </g>
     <g class="com.sun.star.drawing.PolyPolygonShape">
      <g id="id13">
       <path fill="rgb(255,255,255)" stroke="none" d="M 5528,10828 L 7170,10828 7170,11485 5528,11485 5528,10828 Z"/>
      </g>
     </g>
     <g class="com.sun.star.drawing.PolyPolygonShape">
      <g id="id14">
       <path fill="rgb(255,255,255)" stroke="none" d="M 5528,13453 L 7170,13453 7170,14110 5528,14110 5528,13453 Z"/>
      </g>
     </g>
     <g class="com.sun.star.drawing.PolyPolygonShape">
      <g id="id15">
       <path fill="rgb(51,51,255)" stroke="none" d="M 13697,15600 L 13697,13266 11670,14424 11312,13794 13697,12414 13697,8837 10614,10625 10614,13385 9864,13385 9864,11051 7854,12227 7479,11579 9489,10404 7479,9245 7854,8598 10239,9978 13339,8206 10239,6435 7854,7797 7479,7150 9489,5992 7479,4833 7854,4186 9864,5344 9864,3028 10614,3028 10614,5770 13697,7559 13697,3982 11312,2619 11687,1971 13697,3147 13697,813 14447,813 14447,3147 16457,1971 16832,2619 14447,3982 14447,7559 17530,5770 17530,3028 18263,3028 18263,5344 20290,4186 20664,4833 18654,5992 20664,7150 20290,7797 17905,6435 14821,8206 17905,9978 20290,8598 20664,9245 18654,10404 20664,11579 20290,12227 18263,11051 18263,13385 17530,13385 17530,10625 14447,8837 14447,12414 16849,13794 16474,14424 14447,13266 14447,15600 13697,15600 Z"/>
       <path fill="none" stroke="rgb(51,51,255)" stroke-width="353" stroke-linejoin="miter" d="M 13697,15600 L 13697,13266 11670,14424 11312,13794 13697,12414 13697,8837 10614,10625 10614,13385 9864,13385 9864,11051 7854,12227 7479,11579 9489,10404 7479,9245 7854,8598 10239,9978 13339,8206 10239,6435 7854,7797 7479,7150 9489,5992 7479,4833 7854,4186 9864,5344 9864,3028 10614,3028 10614,5770 13697,7559 13697,3982 11312,2619 11687,1971 13697,3147 13697,813 14447,813 14447,3147 16457,1971 16832,2619 14447,3982 14447,7559 17530,5770 17530,3028 18263,3028 18263,5344 20290,4186 20664,4833 18654,5992 20664,7150 20290,7797 17905,6435 14821,8206 17905,9978 20290,8598 20664,9245 18654,10404 20664,11579 20290,12227 18263,11051 18263,13385 17530,13385 17530,10625 14447,8837 14447,12414 16849,13794 16474,14424 14447,13266 14447,15600 13697,15600 Z"/>
      </g>
     </g>
    </g>
   </g>
  </g>
 </g>
</svg>