<?xml version="1.0" encoding="UTF-8"?>

<svg version="1.2" baseProfile="tiny" width="210mm" height="210mm" viewBox="0 0 21000 21000" preserveAspectRatio="xMidYMid" fill-rule="evenodd" stroke-width="28.222" stroke-linejoin="round" xmlns="http://www.w3.org/2000/svg" xmlns:ooo="http://xml.openoffice.org/svg/export" xmlns:xlink="http://www.w3.org/1999/xlink" xml:space="preserve">
 <defs class="ClipPathGroup">
  <clipPath id="presentation_clip_path" clipPathUnits="userSpaceOnUse">
   <rect x="0" y="0" width="21000" height="21000"/>
  </clipPath>
 </defs>
 <defs class="TextShapeIndex">
  <g ooo:slide="id1" ooo:id-list="id3 id4 id5 id6 id7 id8 id9 id10 id11 id12 id13 id14"/>
 </defs>
 <defs class="EmbeddedBulletChars">
  <g id="bullet-char-template(57356)" transform="scale(0.00048828125,-0.00048828125)">
   <path d="M 580,1141 L 1163,571 580,0 -4,571 580,1141 Z"/>
  </g>
  <g id="bullet-char-template(57354)" transform="scale(0.00048828125,-0.00048828125)">
   <path d="M 8,1128 L 1137,1128 1137,0 8,0 8,1128 Z"/>
  </g>
  <g id="bullet-char-template(10146)" transform="scale(0.00048828125,-0.00048828125)">
   <path d="M 174,0 L 602,739 174,1481 1456,739 174,0 Z M 1358,739 L 309,1346 659,739 1358,739 Z"/>
  </g>
  <g id="bullet-char-template(10132)" transform="scale(0.00048828125,-0.00048828125)">
   <path d="M 2015,739 L 1276,0 717,0 1260,543 174,543 174,936 1260,936 717,1481 1274,1481 2015,739 Z"/>
  </g>
  <g id="bullet-char-template(10007)" transform="scale(0.00048828125,-0.00048828125)">
   <path d="M 0,-2 C -7,14 -16,27 -25,37 L 356,567 C 262,823 215,952 215,954 215,979 228,992 255,992 264,992 276,990 289,987 310,991 331,999 354,1012 L 381,999 492,748 772,1049 836,1024 860,1049 C 881,1039 901,1025 922,1006 886,937 835,863 770,784 769,783 710,716 594,584 L 774,223 C 774,196 753,168 711,139 L 727,119 C 717,90 699,76 672,76 641,76 570,178 457,381 L 164,-76 C 142,-110 111,-127 72,-127 30,-127 9,-110 8,-76 1,-67 -2,-52 -2,-32 -2,-23 -1,-13 0,-2 Z"/>
  </g>
  <g id="bullet-char-template(10004)" transform="scale(0.00048828125,-0.00048828125)">
   <path d="M 285,-33 C 182,-33 111,30 74,156 52,228 41,333 41,471 41,549 55,616 82,672 116,743 169,778 240,778 293,778 328,747 346,684 L 369,508 C 377,444 397,411 428,410 L 1163,1116 C 1174,1127 1196,1133 1229,1133 1271,1133 1292,1118 1292,1087 L 1292,965 C 1292,929 1282,901 1262,881 L 442,47 C 390,-6 338,-33 285,-33 Z"/>
  </g>
  <g id="bullet-char-template(9679)" transform="scale(0.00048828125,-0.00048828125)">
   <path d="M 813,0 C 632,0 489,54 383,161 276,268 223,411 223,592 223,773 276,916 383,1023 489,1130 632,1184 813,1184 992,1184 1136,1130 1245,1023 1353,916 1407,772 1407,592 1407,412 1353,268 1245,161 1136,54 992,0 813,0 Z"/>
  </g>
  <g id="bullet-char-template(8226)" transform="scale(0.00048828125,-0.00048828125)">
   <path d="M 346,457 C 273,457 209,483 155,535 101,586 74,649 74,723 74,796 101,859 155,911 209,963 273,989 346,989 419,989 480,963 531,910 582,859 608,796 608,723 608,648 583,586 532,535 482,483 420,457 346,457 Z"/>
  </g>
  <g id="bullet-char-template(8211)" transform="scale(0.00048828125,-0.00048828125)">
   <path d="M -4,459 L 1135,459 1135,606 -4,606 -4,459 Z"/>
  </g>
 </defs>
 <defs class="TextEmbeddedBitmaps"/>
 <g>
  <g id="id2" class="Master_Slide">
   <g id="bg-id2" class="Background"/>
   <g id="bo-id2" class="BackgroundObjects"/>
  </g>
 </g>
 <g class="SlideGroup">
  <g>
   <g id="id1" class="Slide" clip-path="url(#presentation_clip_path)">
    <g class="Page">
     <g class="com.sun.star.drawing.ClosedBezierShape">
      <g id="id3">
       <path fill="rgb(218,225,228)" stroke="none" d="M 12469,1969 C 12469,2332 12387,2640 12206,2954 12024,3268 11799,3493 11485,3675 11171,3856 10863,3938 10500,3938 10138,3938 9830,3856 9516,3675 9202,3493 8976,3268 8795,2954 8614,2640 8531,2332 8531,1969 8531,1607 8614,1299 8795,985 8976,671 9202,445 9516,264 9830,83 10138,0 10500,0 10863,0 11171,83 11485,264 11799,445 12024,671 12206,985 12387,1299 12469,1607 12469,1969 Z"/>
      </g>
     </g>
     <g class="com.sun.star.drawing.ClosedBezierShape">
      <g id="id4">
       <path fill="rgb(196,202,204)" stroke="none" d="M 12141,1969 C 12141,2271 12072,2528 11921,2790 11770,3051 11582,3239 11321,3390 11059,3541 10802,3610 10500,3610 10198,3610 9941,3541 9680,3390 9418,3239 9230,3051 9079,2790 8928,2528 8859,2271 8859,1969 8859,1667 8928,1410 9079,1149 9230,887 9418,699 9680,548 9941,397 10198,328 10500,328 10802,328 11059,397 11321,548 11582,699 11770,887 11921,1149 12072,1410 12141,1667 12141,1969 Z"/>
      </g>
     </g>
     <g class="com.sun.star.drawing.PolyPolygonShape">
      <g id="id5">
       <path fill="rgb(218,225,228)" stroke="none" d="M 8531,1969 L 12469,1969 12469,18376 8531,18376 8531,1969 Z"/>
      </g>
     </g>
     <g class="com.sun.star.drawing.PolyPolygonShape">
      <g id="id6">
       <path fill="rgb(196,202,204)" stroke="none" d="M 8859,1969 L 12141,1969 12141,18028 8859,18028 8859,1969 Z"/>
      </g>
     </g>
     <g class="com.sun.star.drawing.ClosedBezierShape">
      <g id="id7">
       <path fill="rgb(218,225,228)" stroke="none" d="M 13454,18048 C 13454,18591 13330,19054 13059,19524 12787,19995 12448,20334 11977,20606 11507,20877 11044,21001 10501,21001 9957,21001 9495,20877 9024,20606 8553,20334 8215,19995 7943,19524 7671,19054 7547,18591 7547,18048 7547,17504 7671,17042 7943,16571 8215,16100 8553,15762 9024,15490 9495,15218 9957,15094 10501,15094 11044,15094 11507,15218 11977,15490 12448,15762 12787,16100 13059,16571 13330,17042 13454,17504 13454,18048 Z"/>
      </g>
     </g>
     <g class="com.sun.star.drawing.ClosedBezierShape">
      <g id="id8">
       <path fill="rgb(0,204,51)" stroke="none" d="M 13126,18048 C 13126,18531 13016,18942 12774,19360 12533,19779 12232,20080 11813,20321 11395,20563 10984,20673 10501,20673 10017,20673 9606,20563 9188,20321 8769,20080 8468,19779 8227,19360 7985,18942 7875,18531 7875,18048 7875,17564 7985,17153 8227,16735 8468,16316 8769,16015 9188,15774 9606,15532 10017,15422 10501,15422 10984,15422 11395,15532 11813,15774 12232,16015 12533,16316 12774,16735 13016,17153 13126,17564 13126,18048 Z"/>
      </g>
     </g>
     <g class="com.sun.star.drawing.PolyPolygonShape">
      <g id="id9">
       <path fill="rgb(0,204,51)" stroke="none" d="M 8859,7200 L 12141,7200 12141,16736 8859,16736 8859,7200 Z"/>
      </g>
     </g>
     <g class="com.sun.star.drawing.PolyPolygonShape">
      <g id="id10">
       <path fill="rgb(255,255,255)" stroke="none" d="M 10828,2953 L 12470,2953 12470,3610 10828,3610 10828,2953 Z"/>
      </g>
     </g>
     <g class="com.sun.star.drawing.PolyPolygonShape">
      <g id="id11">
       <path fill="rgb(255,255,255)" stroke="none" d="M 10828,5578 L 12470,5578 12470,6235 10828,6235 10828,5578 Z"/>
      </g>
     </g>
     <g class="com.sun.star.drawing.PolyPolygonShape">
      <g id="id12">
       <path fill="rgb(255,255,255)" stroke="none" d="M 10828,8203 L 12470,8203 12470,8860 10828,8860 10828,8203 Z"/>
      </g>
     </g>
     <g class="com.sun.star.drawing.PolyPolygonShape">
      <g id="id13">
       <path fill="rgb(255,255,255)" stroke="none" d="M 10828,10828 L 12470,10828 12470,11485 10828,11485 10828,10828 Z"/>
      </g>
     </g>
     <g class="com.sun.star.drawing.PolyPolygonShape">
      <g id="id14">
       <path fill="rgb(255,255,255)" stroke="none" d="M 10828,13453 L 12470,13453 12470,14110 10828,14110 10828,13453 Z"/>
      </g>
     </g>
    </g>
   </g>
  </g>
 </g>
</svg>